<svg width="182" height="41" viewBox="0 0 182 41" fill="none" xmlns="http://www.w3.org/2000/svg">
<rect y="1.28577" width="38.1464" height="38.1464" rx="1.28583" fill="#262121"/>
<path d="M16.6546 9.47547C17.3225 9.47547 17.8639 8.93405 17.8639 8.26618C17.8639 7.5983 17.3225 7.05688 16.6546 7.05688C15.9867 7.05688 15.4453 7.5983 15.4453 8.26618C15.4453 8.93405 15.9867 9.47547 16.6546 9.47547Z" stroke="white" stroke-width="2.41859"/>
<path d="M31.1663 19.1498C31.8342 19.1498 32.3756 18.6084 32.3756 17.9405C32.3756 17.2726 31.8342 16.7312 31.1663 16.7312C30.4985 16.7312 29.957 17.2726 29.957 17.9405C29.957 18.6084 30.4985 19.1498 31.1663 19.1498Z" stroke="white" stroke-width="2.41859"/>
<path d="M21.4918 33.6611C22.1596 33.6611 22.7011 33.1197 22.7011 32.4518C22.7011 31.784 22.1596 31.2426 21.4918 31.2426C20.8239 31.2426 20.2825 31.784 20.2825 32.4518C20.2825 33.1197 20.8239 33.6611 21.4918 33.6611Z" stroke="white" stroke-width="2.41859"/>
<path d="M6.98029 23.9868C7.64817 23.9868 8.18959 23.4454 8.18959 22.7775C8.18959 22.1097 7.64817 21.5682 6.98029 21.5682C6.31242 21.5682 5.771 22.1097 5.771 22.7775C5.771 23.4454 6.31242 23.9868 6.98029 23.9868Z" stroke="white" stroke-width="2.41859"/>
<path d="M23.4102 6.37708V18.317" stroke="white" stroke-width="2.41859" stroke-linecap="round" stroke-linejoin="round"/>
<path d="M14.7278 22.4098V34.3496" stroke="white" stroke-width="2.41859" stroke-linecap="round" stroke-linejoin="round"/>
<path d="M5.08179 16.0232H17.0214" stroke="white" stroke-width="2.41859" stroke-linecap="round" stroke-linejoin="round"/>
<path d="M21.1143 24.7054H33.0544" stroke="white" stroke-width="2.41859" stroke-linecap="round" stroke-linejoin="round"/>
<path d="M48.5942 10.8531V30H44.7538V10.8531H48.5942ZM56.2288 17.1622C56.7226 16.3576 57.3626 15.7267 58.149 15.2695C58.9536 14.8123 59.868 14.5837 60.8921 14.5837V18.6161H59.8771C58.6702 18.6161 57.7558 18.8996 57.134 19.4665C56.5306 20.0334 56.2288 21.0209 56.2288 22.429V30H52.3885V14.8032H56.2288V17.1622ZM65.4264 12.9927C64.7497 12.9927 64.1828 12.7824 63.7256 12.3618C63.2867 11.9229 63.0673 11.3834 63.0673 10.7434C63.0673 10.1033 63.2867 9.57298 63.7256 9.15237C64.1828 8.71347 64.7497 8.49402 65.4264 8.49402C66.103 8.49402 66.6608 8.71347 67.0997 9.15237C67.5569 9.57298 67.7854 10.1033 67.7854 10.7434C67.7854 11.3834 67.5569 11.9229 67.0997 12.3618C66.6608 12.7824 66.103 12.9927 65.4264 12.9927ZM67.3191 14.8032V30H63.4788V14.8032H67.3191ZM76.9288 30.2469C75.6852 30.2469 74.5697 30.0274 73.5822 29.5885C72.5947 29.1313 71.8083 28.5187 71.2231 27.7507C70.6562 26.9826 70.3453 26.1322 70.2905 25.1996H74.1582C74.2314 25.7848 74.5149 26.2694 75.0086 26.6534C75.5207 27.0374 76.1516 27.2295 76.9014 27.2295C77.6329 27.2295 78.1998 27.0832 78.6021 26.7906C79.0227 26.498 79.233 26.1231 79.233 25.6659C79.233 25.1721 78.977 24.8064 78.4649 24.5686C77.9712 24.3126 77.1757 24.0383 76.0784 23.7457C74.9446 23.4714 74.0119 23.1879 73.2805 22.8953C72.5672 22.6027 71.9455 22.1547 71.4151 21.5512C70.9031 20.9477 70.6471 20.1339 70.6471 19.1099C70.6471 18.2686 70.8848 17.5006 71.3603 16.8056C71.854 16.1107 72.549 15.5621 73.445 15.1598C74.3594 14.7575 75.4292 14.5563 76.6545 14.5563C78.4649 14.5563 79.9096 15.0135 80.9886 15.9278C82.0675 16.8239 82.6619 18.04 82.7716 19.5762H79.0958C79.041 18.9727 78.785 18.4972 78.3278 18.1498C77.8889 17.784 77.2945 17.6011 76.5448 17.6011C75.8498 17.6011 75.3104 17.7292 74.9263 17.9852C74.5606 18.2412 74.3777 18.5978 74.3777 19.055C74.3777 19.567 74.6337 19.9602 75.1458 20.2345C75.6578 20.4906 76.4533 20.7557 77.5323 21.03C78.6295 21.3043 79.5347 21.5878 80.2479 21.8804C80.9612 22.173 81.5738 22.6302 82.0858 23.252C82.6162 23.8554 82.8905 24.6601 82.9088 25.6659C82.9088 26.5437 82.6619 27.33 82.1681 28.025C81.6927 28.7199 80.9977 29.2685 80.0834 29.6708C79.1873 30.0549 78.1358 30.2469 76.9288 30.2469ZM99.2907 10.8531C101.302 10.8531 103.067 11.2463 104.585 12.0326C106.121 12.819 107.301 13.9437 108.124 15.4067C108.965 16.8514 109.385 18.5338 109.385 20.454C109.385 22.3742 108.965 24.0566 108.124 25.5013C107.301 26.9277 106.121 28.0341 104.585 28.8205C103.067 29.6068 101.302 30 99.2907 30H92.5975V10.8531H99.2907ZM99.1535 26.7357C101.165 26.7357 102.72 26.1871 103.817 25.0898C104.914 23.9926 105.463 22.4473 105.463 20.454C105.463 18.4607 104.914 16.9062 103.817 15.7907C102.72 14.6569 101.165 14.09 99.1535 14.09H96.4379V26.7357H99.1535ZM114.208 12.9927C113.531 12.9927 112.964 12.7824 112.507 12.3618C112.068 11.9229 111.849 11.3834 111.849 10.7434C111.849 10.1033 112.068 9.57298 112.507 9.15237C112.964 8.71347 113.531 8.49402 114.208 8.49402C114.884 8.49402 115.442 8.71347 115.881 9.15237C116.338 9.57298 116.567 10.1033 116.567 10.7434C116.567 11.3834 116.338 11.9229 115.881 12.3618C115.442 12.7824 114.884 12.9927 114.208 12.9927ZM116.1 14.8032V30H112.26V14.8032H116.1ZM125.847 14.5563C126.981 14.5563 127.978 14.7849 128.837 15.2421C129.697 15.681 130.373 16.257 130.867 16.9702V14.8032H134.735V30.1097C134.735 31.5179 134.451 32.7705 133.885 33.8678C133.318 34.9833 132.467 35.8611 131.333 36.5012C130.2 37.1595 128.828 37.4887 127.219 37.4887C125.061 37.4887 123.287 36.9858 121.897 35.98C120.526 34.9742 119.748 33.6026 119.565 31.8653H123.378C123.58 32.5602 124.009 33.1089 124.668 33.5112C125.344 33.9318 126.158 34.1421 127.109 34.1421C128.225 34.1421 129.13 33.8038 129.825 33.1271C130.52 32.4688 130.867 31.463 130.867 30.1097V27.7507C130.373 28.4639 129.688 29.0582 128.81 29.5337C127.95 30.0091 126.963 30.2469 125.847 30.2469C124.567 30.2469 123.397 29.9177 122.336 29.2594C121.275 28.601 120.434 27.6775 119.812 26.4888C119.209 25.2819 118.907 23.9012 118.907 22.3467C118.907 20.8106 119.209 19.4482 119.812 18.2595C120.434 17.0708 121.266 16.1564 122.309 15.5164C123.369 14.8763 124.549 14.5563 125.847 14.5563ZM130.867 22.4016C130.867 21.4689 130.684 20.6734 130.318 20.0151C129.953 19.3384 129.459 18.8264 128.837 18.4789C128.215 18.1132 127.548 17.9303 126.835 17.9303C126.122 17.9303 125.463 18.104 124.86 18.4515C124.256 18.799 123.762 19.311 123.378 19.9877C123.013 20.646 122.83 21.4324 122.83 22.3467C122.83 23.2611 123.013 24.0657 123.378 24.7607C123.762 25.4373 124.256 25.9585 124.86 26.3242C125.481 26.69 126.14 26.8729 126.835 26.8729C127.548 26.8729 128.215 26.6991 128.837 26.3517C129.459 25.9859 129.953 25.4739 130.318 24.8155C130.684 24.1389 130.867 23.3342 130.867 22.4016ZM140.433 12.9927C139.757 12.9927 139.19 12.7824 138.733 12.3618C138.294 11.9229 138.074 11.3834 138.074 10.7434C138.074 10.1033 138.294 9.57298 138.733 9.15237C139.19 8.71347 139.757 8.49402 140.433 8.49402C141.11 8.49402 141.668 8.71347 142.107 9.15237C142.564 9.57298 142.792 10.1033 142.792 10.7434C142.792 11.3834 142.564 11.9229 142.107 12.3618C141.668 12.7824 141.11 12.9927 140.433 12.9927ZM142.326 14.8032V30H138.486V14.8032H142.326ZM150.592 17.9577V25.3093C150.592 25.8213 150.71 26.1962 150.948 26.434C151.204 26.6534 151.625 26.7631 152.21 26.7631H153.993V30H151.579C148.342 30 146.724 28.4273 146.724 25.2819V17.9577H144.913V14.8032H146.724V11.0451H150.592V14.8032H153.993V17.9577H150.592ZM155.768 22.3467C155.768 20.8106 156.069 19.4482 156.673 18.2595C157.295 17.0708 158.127 16.1564 159.169 15.5164C160.23 14.8763 161.409 14.5563 162.708 14.5563C163.842 14.5563 164.829 14.7849 165.67 15.2421C166.53 15.6993 167.216 16.2753 167.728 16.9702V14.8032H171.595V30H167.728V27.7781C167.234 28.4913 166.548 29.0856 165.67 29.5611C164.811 30.0183 163.814 30.2469 162.68 30.2469C161.4 30.2469 160.23 29.9177 159.169 29.2594C158.127 28.601 157.295 27.6775 156.673 26.4888C156.069 25.2819 155.768 23.9012 155.768 22.3467ZM167.728 22.4016C167.728 21.4689 167.545 20.6734 167.179 20.0151C166.813 19.3384 166.32 18.8264 165.698 18.4789C165.076 18.1132 164.408 17.9303 163.695 17.9303C162.982 17.9303 162.324 18.104 161.72 18.4515C161.117 18.799 160.623 19.311 160.239 19.9877C159.873 20.646 159.69 21.4324 159.69 22.3467C159.69 23.2611 159.873 24.0657 160.239 24.7607C160.623 25.4373 161.117 25.9585 161.72 26.3242C162.342 26.69 163 26.8729 163.695 26.8729C164.408 26.8729 165.076 26.6991 165.698 26.3517C166.32 25.9859 166.813 25.4739 167.179 24.8155C167.545 24.1389 167.728 23.3342 167.728 22.4016ZM179.187 9.70099V30H175.346V9.70099H179.187Z" fill="#262121"/>
</svg>
